<svg width="952" height="952" viewBox="0 0 952 952" fill="none" xmlns="http://www.w3.org/2000/svg">
<g clip-path="url(#clip0_1_11)">
<path d="M475.412 623.975C403.933 623.975 344.312 573.358 330.153 506.114H92.3611C109.174 701.66 273.186 855.088 472.934 855.088C672.69 855.088 836.878 701.66 853.508 506.114H620.67C606.519 573.541 546.891 623.975 475.412 623.975Z" fill="white"/>
<path d="M560.337 845.176C718.865 808.014 839.356 672.278 853.514 506.114H759.739C750.365 656.888 671.271 784.66 560.337 845.176Z" fill="#DFDFDF"/>
<path d="M562.99 475.503C562.814 475.503 562.814 475.503 562.99 475.503C562.814 464.709 560.866 454.444 557.33 444.893C544.943 411.62 512.919 388.084 475.412 388.084C437.904 388.084 405.881 411.797 393.494 444.893C389.859 454.688 388.002 465.055 388.01 475.503H388.186C388.186 486.298 390.134 496.562 393.67 506.114C406.057 539.386 438.081 562.923 475.588 562.923C513.096 562.923 545.119 539.21 557.506 506.114C561.042 496.732 562.99 486.298 562.99 475.503Z" fill="white"/>
<path d="M475.588 327.201C547.067 327.201 606.688 377.819 620.847 445.062H858.639C841.833 249.34 677.814 95.9122 477.889 95.9122C277.958 95.9122 114.122 249.34 97.316 444.886H330.33C344.482 377.635 404.109 327.201 475.588 327.201Z" fill="#FF1C1C"/>
<path d="M759.739 444.886H858.462C843.958 275.884 719.394 138.207 556.8 104.045C669.683 163.678 750.182 292.687 759.739 444.886Z" fill="#DF1818"/>
<path d="M477.889 95.9122C677.821 95.9122 841.833 249.34 858.462 444.886H620.67C606.518 377.635 546.891 327.025 475.405 327.025C403.926 327.025 344.305 377.642 330.146 444.886H97.3092C114.115 249.333 278.134 95.9122 477.882 95.9122H477.889ZM557.33 444.886C560.866 454.438 562.814 464.702 562.814 475.497H562.99C562.99 486.291 561.042 496.556 557.506 506.107C545.126 539.38 513.096 562.917 475.588 562.917C438.081 562.917 406.057 539.203 393.67 506.107C390.035 496.312 388.178 485.945 388.186 475.497H388.01C388.01 464.702 389.958 454.438 393.494 444.886C405.874 411.614 437.904 388.077 475.412 388.077C512.919 388.077 544.943 411.79 557.33 444.886ZM472.934 855.264C273.003 855.264 108.99 701.837 92.3611 506.291H330.153C344.305 573.534 403.933 624.152 475.412 624.152C546.891 624.152 606.518 573.534 620.677 506.291H853.691C836.885 701.66 672.866 855.264 472.941 855.264H472.934ZM475.412 23C225.585 23 23 225.62 23 475.503C23 725.38 225.585 928.007 475.412 928.007C725.238 928.007 928 725.557 928 475.503C928 225.45 725.415 23 475.412 23Z" fill="black"/>
</g>
<defs>
<clipPath id="clip0_1_11">
<rect width="905" height="905" fill="white" transform="translate(23 23)"/>
</clipPath>
</defs>
</svg>
